STARTFONT 2.1
COMMENT converted Oberon font (using FontToBDF by R.Crelier 10.1.91)
FONT Courier12.Scn.Fnt
SIZE 12 75 75
FONTBOUNDINGBOX  8 14 0 -3
STARTPROPERTIES 3
FONT_ASCENT 11
FONT_DESCENT 3
DEFAULT_CHAR 0
ENDPROPERTIES
CHARS 119
STARTCHAR c0
ENCODING -1 0
SWIDTH 0 0
DWIDTH 0 0
BBX 0 0 0 0
BITMAP
ENDCHAR
STARTCHAR c9
ENCODING -1 9
SWIDTH 1032 0
DWIDTH 32 0
BBX 0 0 0 0
BITMAP
ENDCHAR
STARTCHAR c32
ENCODING -1 32
SWIDTH 258 0
DWIDTH 8 0
BBX 0 0 0 0
BITMAP
ENDCHAR
STARTCHAR c33
ENCODING -1 33
SWIDTH 258 0
DWIDTH 8 0
BBX 1 10 4 0
BITMAP
80
80
80
80
80
80
00
00
80
80
ENDCHAR
STARTCHAR c34
ENCODING -1 34
SWIDTH 258 0
DWIDTH 8 0
BBX 3 3 3 6
BITMAP
A0
A0
A0
ENDCHAR
STARTCHAR c35
ENCODING -1 35
SWIDTH 258 0
DWIDTH 8 0
BBX 7 10 1 0
BITMAP
24
24
24
FE
24
48
FE
48
48
48
ENDCHAR
STARTCHAR c36
ENCODING -1 36
SWIDTH 258 0
DWIDTH 8 0
BBX 6 13 1 -2
BITMAP
10
10
7C
94
90
90
78
24
24
A4
F8
20
20
ENDCHAR
STARTCHAR c37
ENCODING -1 37
SWIDTH 258 0
DWIDTH 8 0
BBX 7 9 1 0
BITMAP
64
A4
A8
C8
10
26
2A
4A
4C
ENDCHAR
STARTCHAR c38
ENCODING -1 38
SWIDTH 258 0
DWIDTH 8 0
BBX 7 9 1 0
BITMAP
18
28
28
36
52
8A
84
8C
72
ENDCHAR
STARTCHAR c39
ENCODING -1 39
SWIDTH 258 0
DWIDTH 8 0
BBX 1 3 4 6
BITMAP
80
80
80
ENDCHAR
STARTCHAR c40
ENCODING -1 40
SWIDTH 258 0
DWIDTH 8 0
BBX 4 13 2 -3
BITMAP
10
20
40
40
80
80
80
80
80
40
40
20
10
ENDCHAR
STARTCHAR c41
ENCODING -1 41
SWIDTH 258 0
DWIDTH 8 0
BBX 4 13 3 -3
BITMAP
80
40
20
20
10
10
10
10
10
20
20
40
80
ENDCHAR
STARTCHAR c42
ENCODING -1 42
SWIDTH 258 0
DWIDTH 8 0
BBX 7 8 1 0
BITMAP
10
92
54
38
38
54
92
10
ENDCHAR
STARTCHAR c43
ENCODING -1 43
SWIDTH 258 0
DWIDTH 8 0
BBX 7 9 1 -1
BITMAP
10
10
10
10
FE
10
10
10
10
ENDCHAR
STARTCHAR c44
ENCODING -1 44
SWIDTH 258 0
DWIDTH 8 0
BBX 2 4 2 -2
BITMAP
40
40
40
80
ENDCHAR
STARTCHAR c45
ENCODING -1 45
SWIDTH 258 0
DWIDTH 8 0
BBX 7 1 1 3
BITMAP
FE
ENDCHAR
STARTCHAR c46
ENCODING -1 46
SWIDTH 258 0
DWIDTH 8 0
BBX 1 2 3 0
BITMAP
80
80
ENDCHAR
STARTCHAR c47
ENCODING -1 47
SWIDTH 258 0
DWIDTH 8 0
BBX 5 10 2 0
BITMAP
08
08
10
10
20
20
40
40
80
80
ENDCHAR
STARTCHAR c48
ENCODING -1 48
SWIDTH 258 0
DWIDTH 8 0
BBX 5 9 2 0
BITMAP
70
88
88
88
88
88
88
88
70
ENDCHAR
STARTCHAR c49
ENCODING -1 49
SWIDTH 258 0
DWIDTH 8 0
BBX 6 9 1 0
BITMAP
30
70
90
10
10
10
10
10
FC
ENDCHAR
STARTCHAR c50
ENCODING -1 50
SWIDTH 258 0
DWIDTH 8 0
BBX 6 9 2 0
BITMAP
70
88
08
08
10
20
40
84
FC
ENDCHAR
STARTCHAR c51
ENCODING -1 51
SWIDTH 258 0
DWIDTH 8 0
BBX 5 9 2 0
BITMAP
70
88
08
08
70
08
08
88
70
ENDCHAR
STARTCHAR c52
ENCODING -1 52
SWIDTH 258 0
DWIDTH 8 0
BBX 7 9 1 0
BITMAP
08
18
28
28
48
FE
08
08
3C
ENDCHAR
STARTCHAR c53
ENCODING -1 53
SWIDTH 258 0
DWIDTH 8 0
BBX 5 9 2 0
BITMAP
F8
80
80
F0
88
08
08
88
70
ENDCHAR
STARTCHAR c54
ENCODING -1 54
SWIDTH 258 0
DWIDTH 8 0
BBX 5 9 2 0
BITMAP
38
40
80
80
B0
C8
88
88
70
ENDCHAR
STARTCHAR c55
ENCODING -1 55
SWIDTH 258 0
DWIDTH 8 0
BBX 6 9 2 0
BITMAP
FC
88
88
10
10
20
20
40
40
ENDCHAR
STARTCHAR c56
ENCODING -1 56
SWIDTH 258 0
DWIDTH 8 0
BBX 5 9 2 0
BITMAP
70
88
88
88
70
88
88
88
70
ENDCHAR
STARTCHAR c57
ENCODING -1 57
SWIDTH 258 0
DWIDTH 8 0
BBX 5 9 2 0
BITMAP
70
88
88
98
68
08
08
10
E0
ENDCHAR
STARTCHAR c58
ENCODING -1 58
SWIDTH 258 0
DWIDTH 8 0
BBX 1 7 4 0
BITMAP
80
80
00
00
00
80
80
ENDCHAR
STARTCHAR c59
ENCODING -1 59
SWIDTH 258 0
DWIDTH 8 0
BBX 2 9 3 -2
BITMAP
40
40
00
00
00
40
40
40
80
ENDCHAR
STARTCHAR c60
ENCODING -1 60
SWIDTH 258 0
DWIDTH 8 0
BBX 8 7 0 0
BITMAP
03
0C
30
C0
30
0C
03
ENDCHAR
STARTCHAR c61
ENCODING -1 61
SWIDTH 258 0
DWIDTH 8 0
BBX 7 3 1 2
BITMAP
FE
00
FE
ENDCHAR
STARTCHAR c62
ENCODING -1 62
SWIDTH 258 0
DWIDTH 8 0
BBX 8 7 0 0
BITMAP
C0
30
0C
03
0C
30
C0
ENDCHAR
STARTCHAR c63
ENCODING -1 63
SWIDTH 258 0
DWIDTH 8 0
BBX 5 10 2 0
BITMAP
70
88
08
08
10
20
20
00
20
20
ENDCHAR
STARTCHAR c64
ENCODING -1 64
SWIDTH 258 0
DWIDTH 8 0
BBX 7 13 1 -3
BITMAP
38
44
82
8E
92
92
92
92
96
9A
80
40
38
ENDCHAR
STARTCHAR c65
ENCODING -1 65
SWIDTH 258 0
DWIDTH 8 0
BBX 8 9 0 0
BITMAP
18
08
14
14
24
3E
42
42
E7
ENDCHAR
STARTCHAR c66
ENCODING -1 66
SWIDTH 258 0
DWIDTH 8 0
BBX 6 9 1 0
BITMAP
F8
44
44
44
78
44
44
44
F8
ENDCHAR
STARTCHAR c67
ENCODING -1 67
SWIDTH 258 0
DWIDTH 8 0
BBX 6 9 1 0
BITMAP
74
8C
84
84
80
80
80
84
78
ENDCHAR
STARTCHAR c68
ENCODING -1 68
SWIDTH 258 0
DWIDTH 8 0
BBX 6 9 1 0
BITMAP
F8
44
44
44
44
44
44
44
F8
ENDCHAR
STARTCHAR c69
ENCODING -1 69
SWIDTH 258 0
DWIDTH 8 0
BBX 7 9 1 0
BITMAP
FE
42
42
48
78
48
42
42
FE
ENDCHAR
STARTCHAR c70
ENCODING -1 70
SWIDTH 258 0
DWIDTH 8 0
BBX 7 9 1 0
BITMAP
FE
42
42
48
78
48
40
40
F0
ENDCHAR
STARTCHAR c71
ENCODING -1 71
SWIDTH 258 0
DWIDTH 8 0
BBX 7 9 1 0
BITMAP
7C
84
84
80
9E
84
84
8C
74
ENDCHAR
STARTCHAR c72
ENCODING -1 72
SWIDTH 258 0
DWIDTH 8 0
BBX 7 9 1 0
BITMAP
EE
44
44
44
7C
44
44
44
EE
ENDCHAR
STARTCHAR c73
ENCODING -1 73
SWIDTH 258 0
DWIDTH 8 0
BBX 5 9 2 0
BITMAP
F8
20
20
20
20
20
20
20
F8
ENDCHAR
STARTCHAR c74
ENCODING -1 74
SWIDTH 258 0
DWIDTH 8 0
BBX 6 9 1 0
BITMAP
3C
08
08
08
08
08
08
88
70
ENDCHAR
STARTCHAR c75
ENCODING -1 75
SWIDTH 258 0
DWIDTH 8 0
BBX 7 9 1 0
BITMAP
EE
44
48
50
60
50
48
44
EE
ENDCHAR
STARTCHAR c76
ENCODING -1 76
SWIDTH 258 0
DWIDTH 8 0
BBX 6 9 2 0
BITMAP
F0
40
40
40
40
40
44
44
FC
ENDCHAR
STARTCHAR c77
ENCODING -1 77
SWIDTH 258 0
DWIDTH 8 0
BBX 8 9 0 0
BITMAP
E3
63
55
55
49
49
41
41
E3
ENDCHAR
STARTCHAR c78
ENCODING -1 78
SWIDTH 258 0
DWIDTH 8 0
BBX 8 9 0 0
BITMAP
E7
62
52
52
5A
4A
4A
46
E6
ENDCHAR
STARTCHAR c79
ENCODING -1 79
SWIDTH 258 0
DWIDTH 8 0
BBX 6 9 1 0
BITMAP
78
84
84
84
84
84
84
84
78
ENDCHAR
STARTCHAR c80
ENCODING -1 80
SWIDTH 258 0
DWIDTH 8 0
BBX 6 9 1 0
BITMAP
F8
44
44
44
78
40
40
40
F0
ENDCHAR
STARTCHAR c81
ENCODING -1 81
SWIDTH 258 0
DWIDTH 8 0
BBX 6 11 1 -2
BITMAP
78
84
84
84
84
84
84
84
78
10
1C
ENDCHAR
STARTCHAR c82
ENCODING -1 82
SWIDTH 258 0
DWIDTH 8 0
BBX 7 9 1 0
BITMAP
F8
44
44
44
78
48
44
44
F6
ENDCHAR
STARTCHAR c83
ENCODING -1 83
SWIDTH 258 0
DWIDTH 8 0
BBX 5 9 2 0
BITMAP
68
98
88
80
70
08
88
C8
B0
ENDCHAR
STARTCHAR c84
ENCODING -1 84
SWIDTH 258 0
DWIDTH 8 0
BBX 7 9 1 0
BITMAP
FE
92
92
10
10
10
10
10
7C
ENDCHAR
STARTCHAR c85
ENCODING -1 85
SWIDTH 258 0
DWIDTH 8 0
BBX 7 9 1 0
BITMAP
EE
44
44
44
44
44
44
44
38
ENDCHAR
STARTCHAR c86
ENCODING -1 86
SWIDTH 258 0
DWIDTH 8 0
BBX 7 9 1 0
BITMAP
EE
42
42
44
24
28
28
10
10
ENDCHAR
STARTCHAR c87
ENCODING -1 87
SWIDTH 258 0
DWIDTH 8 0
BBX 8 9 0 0
BITMAP
E3
41
41
2A
2A
2A
14
14
14
ENDCHAR
STARTCHAR c88
ENCODING -1 88
SWIDTH 258 0
DWIDTH 8 0
BBX 7 9 1 0
BITMAP
EE
44
44
28
10
28
44
44
EE
ENDCHAR
STARTCHAR c89
ENCODING -1 89
SWIDTH 258 0
DWIDTH 8 0
BBX 7 9 1 0
BITMAP
EE
44
44
28
28
10
10
10
7C
ENDCHAR
STARTCHAR c90
ENCODING -1 90
SWIDTH 258 0
DWIDTH 8 0
BBX 7 9 1 0
BITMAP
FE
84
84
08
10
20
42
42
FE
ENDCHAR
STARTCHAR c91
ENCODING -1 91
SWIDTH 258 0
DWIDTH 8 0
BBX 3 13 3 -3
BITMAP
E0
80
80
80
80
80
80
80
80
80
80
80
E0
ENDCHAR
STARTCHAR c92
ENCODING -1 92
SWIDTH 258 0
DWIDTH 8 0
BBX 5 10 2 0
BITMAP
80
80
40
40
20
20
10
10
08
08
ENDCHAR
STARTCHAR c93
ENCODING -1 93
SWIDTH 258 0
DWIDTH 8 0
BBX 3 13 3 -3
BITMAP
E0
20
20
20
20
20
20
20
20
20
20
20
E0
ENDCHAR
STARTCHAR c94
ENCODING -1 94
SWIDTH 258 0
DWIDTH 8 0
BBX 7 8 1 0
BITMAP
10
38
54
92
10
10
10
10
ENDCHAR
STARTCHAR c95
ENCODING -1 95
SWIDTH 258 0
DWIDTH 8 0
BBX 8 1 0 3
BITMAP
FF
ENDCHAR
STARTCHAR c96
ENCODING -1 96
SWIDTH 258 0
DWIDTH 8 0
BBX 3 3 3 8
BITMAP
80
40
20
ENDCHAR
STARTCHAR c97
ENCODING -1 97
SWIDTH 258 0
DWIDTH 8 0
BBX 6 7 2 0
BITMAP
70
88
08
78
88
98
EC
ENDCHAR
STARTCHAR c98
ENCODING -1 98
SWIDTH 258 0
DWIDTH 8 0
BBX 6 10 1 0
BITMAP
C0
40
40
58
64
44
44
44
64
D8
ENDCHAR
STARTCHAR c99
ENCODING -1 99
SWIDTH 258 0
DWIDTH 8 0
BBX 5 7 2 0
BITMAP
78
88
88
80
80
88
70
ENDCHAR
STARTCHAR c100
ENCODING -1 100
SWIDTH 258 0
DWIDTH 8 0
BBX 6 10 2 0
BITMAP
18
08
08
68
98
88
88
88
98
6C
ENDCHAR
STARTCHAR c101
ENCODING -1 101
SWIDTH 258 0
DWIDTH 8 0
BBX 5 7 2 0
BITMAP
70
88
88
F8
80
88
70
ENDCHAR
STARTCHAR c102
ENCODING -1 102
SWIDTH 258 0
DWIDTH 8 0
BBX 6 10 1 0
BITMAP
1C
20
20
FC
20
20
20
20
20
F8
ENDCHAR
STARTCHAR c103
ENCODING -1 103
SWIDTH 258 0
DWIDTH 8 0
BBX 6 10 2 -3
BITMAP
6C
98
88
88
88
98
68
08
88
70
ENDCHAR
STARTCHAR c104
ENCODING -1 104
SWIDTH 258 0
DWIDTH 8 0
BBX 7 10 1 0
BITMAP
C0
40
40
58
64
44
44
44
44
EE
ENDCHAR
STARTCHAR c105
ENCODING -1 105
SWIDTH 258 0
DWIDTH 8 0
BBX 5 10 2 0
BITMAP
20
20
00
E0
20
20
20
20
20
F8
ENDCHAR
STARTCHAR c106
ENCODING -1 106
SWIDTH 258 0
DWIDTH 8 0
BBX 5 13 1 -3
BITMAP
08
08
00
78
08
08
08
08
08
08
08
88
70
ENDCHAR
STARTCHAR c107
ENCODING -1 107
SWIDTH 258 0
DWIDTH 8 0
BBX 7 10 1 0
BITMAP
C0
40
40
4E
44
48
70
48
44
CE
ENDCHAR
STARTCHAR c108
ENCODING -1 108
SWIDTH 258 0
DWIDTH 8 0
BBX 7 10 1 0
BITMAP
70
10
10
10
10
10
10
10
10
FE
ENDCHAR
STARTCHAR c109
ENCODING -1 109
SWIDTH 258 0
DWIDTH 8 0
BBX 8 7 0 0
BITMAP
DB
6D
49
49
49
49
49
ENDCHAR
STARTCHAR c110
ENCODING -1 110
SWIDTH 258 0
DWIDTH 8 0
BBX 7 7 1 0
BITMAP
D8
64
44
44
44
44
EE
ENDCHAR
STARTCHAR c111
ENCODING -1 111
SWIDTH 258 0
DWIDTH 8 0
BBX 5 7 2 0
BITMAP
70
88
88
88
88
88
70
ENDCHAR
STARTCHAR c112
ENCODING -1 112
SWIDTH 258 0
DWIDTH 8 0
BBX 6 10 1 -3
BITMAP
D8
64
44
44
44
64
58
40
40
F0
ENDCHAR
STARTCHAR c113
ENCODING -1 113
SWIDTH 258 0
DWIDTH 8 0
BBX 6 10 2 -3
BITMAP
6C
98
88
88
88
98
68
08
08
3C
ENDCHAR
STARTCHAR c114
ENCODING -1 114
SWIDTH 258 0
DWIDTH 8 0
BBX 7 7 1 0
BITMAP
6C
32
20
20
20
20
FC
ENDCHAR
STARTCHAR c115
ENCODING -1 115
SWIDTH 258 0
DWIDTH 8 0
BBX 5 7 2 0
BITMAP
78
88
80
70
08
88
F0
ENDCHAR
STARTCHAR c116
ENCODING -1 116
SWIDTH 258 0
DWIDTH 8 0
BBX 7 9 1 0
BITMAP
20
20
FE
20
20
20
20
22
1C
ENDCHAR
STARTCHAR c117
ENCODING -1 117
SWIDTH 258 0
DWIDTH 8 0
BBX 7 7 1 0
BITMAP
CC
44
44
44
44
4C
36
ENDCHAR
STARTCHAR c118
ENCODING -1 118
SWIDTH 258 0
DWIDTH 8 0
BBX 7 7 1 0
BITMAP
EE
44
44
28
28
10
10
ENDCHAR
STARTCHAR c119
ENCODING -1 119
SWIDTH 258 0
DWIDTH 8 0
BBX 8 7 0 0
BITMAP
E3
41
41
2A
2A
14
14
ENDCHAR
STARTCHAR c120
ENCODING -1 120
SWIDTH 258 0
DWIDTH 8 0
BBX 7 7 1 0
BITMAP
EE
44
28
10
28
44
EE
ENDCHAR
STARTCHAR c121
ENCODING -1 121
SWIDTH 258 0
DWIDTH 8 0
BBX 7 10 1 -3
BITMAP
EE
44
44
28
28
10
10
20
20
C0
ENDCHAR
STARTCHAR c122
ENCODING -1 122
SWIDTH 258 0
DWIDTH 8 0
BBX 6 7 2 0
BITMAP
FC
88
90
30
24
44
FC
ENDCHAR
STARTCHAR c123
ENCODING -1 123
SWIDTH 258 0
DWIDTH 8 0
BBX 5 13 1 -3
BITMAP
18
20
20
20
20
20
C0
20
20
20
20
20
18
ENDCHAR
STARTCHAR c124
ENCODING -1 124
SWIDTH 258 0
DWIDTH 8 0
BBX 1 13 4 -3
BITMAP
80
80
80
80
80
80
80
80
80
80
80
80
80
ENDCHAR
STARTCHAR c125
ENCODING -1 125
SWIDTH 258 0
DWIDTH 8 0
BBX 5 13 3 -3
BITMAP
C0
20
20
20
20
20
18
20
20
20
20
20
C0
ENDCHAR
STARTCHAR c126
ENCODING -1 126
SWIDTH 258 0
DWIDTH 8 0
BBX 7 3 1 2
BITMAP
62
92
8C
ENDCHAR
STARTCHAR c128
ENCODING -1 128
SWIDTH 258 0
DWIDTH 8 0
BBX 8 11 0 0
BITMAP
36
00
18
08
14
14
24
3E
42
42
E7
ENDCHAR
STARTCHAR c129
ENCODING -1 129
SWIDTH 258 0
DWIDTH 8 0
BBX 6 11 1 0
BITMAP
CC
00
78
84
84
84
84
84
84
84
78
ENDCHAR
STARTCHAR c130
ENCODING -1 130
SWIDTH 258 0
DWIDTH 8 0
BBX 7 11 1 0
BITMAP
6C
00
EE
44
44
44
44
44
44
44
38
ENDCHAR
STARTCHAR c131
ENCODING -1 131
SWIDTH 258 0
DWIDTH 8 0
BBX 6 10 2 0
BITMAP
50
50
00
70
88
08
78
88
98
EC
ENDCHAR
STARTCHAR c132
ENCODING -1 132
SWIDTH 258 0
DWIDTH 8 0
BBX 5 10 2 0
BITMAP
50
50
00
70
88
88
88
88
88
70
ENDCHAR
STARTCHAR c133
ENCODING -1 133
SWIDTH 258 0
DWIDTH 8 0
BBX 7 10 1 0
BITMAP
28
28
00
CC
44
44
44
44
4C
36
ENDCHAR
STARTCHAR c134
ENCODING -1 134
SWIDTH 258 0
DWIDTH 8 0
BBX 6 11 2 0
BITMAP
20
50
88
00
70
88
08
78
88
98
EC
ENDCHAR
STARTCHAR c135
ENCODING -1 135
SWIDTH 258 0
DWIDTH 8 0
BBX 5 11 2 0
BITMAP
20
50
88
00
70
88
88
F8
80
88
70
ENDCHAR
STARTCHAR c136
ENCODING -1 136
SWIDTH 258 0
DWIDTH 8 0
BBX 5 11 2 0
BITMAP
20
50
88
00
E0
20
20
20
20
20
F8
ENDCHAR
STARTCHAR c137
ENCODING -1 137
SWIDTH 258 0
DWIDTH 8 0
BBX 5 11 2 0
BITMAP
20
50
88
00
70
88
88
88
88
88
70
ENDCHAR
STARTCHAR c138
ENCODING -1 138
SWIDTH 258 0
DWIDTH 8 0
BBX 7 11 1 0
BITMAP
10
28
44
00
CC
44
44
44
44
4C
36
ENDCHAR
STARTCHAR c139
ENCODING -1 139
SWIDTH 258 0
DWIDTH 8 0
BBX 6 11 2 0
BITMAP
40
20
10
00
70
88
08
78
88
98
EC
ENDCHAR
STARTCHAR c140
ENCODING -1 140
SWIDTH 258 0
DWIDTH 8 0
BBX 5 11 2 0
BITMAP
40
20
10
00
70
88
88
F8
80
88
70
ENDCHAR
STARTCHAR c142
ENCODING -1 142
SWIDTH 258 0
DWIDTH 8 0
BBX 5 11 2 0
BITMAP
40
20
10
00
70
88
88
88
88
88
70
ENDCHAR
STARTCHAR c143
ENCODING -1 143
SWIDTH 258 0
DWIDTH 8 0
BBX 7 11 1 0
BITMAP
20
10
08
00
CC
44
44
44
44
4C
36
ENDCHAR
STARTCHAR c144
ENCODING -1 144
SWIDTH 258 0
DWIDTH 8 0
BBX 5 11 2 0
BITMAP
08
10
20
00
70
88
88
F8
80
88
70
ENDCHAR
STARTCHAR c145
ENCODING -1 145
SWIDTH 258 0
DWIDTH 8 0
BBX 5 10 2 0
BITMAP
50
50
00
70
88
88
F8
80
88
70
ENDCHAR
STARTCHAR c146
ENCODING -1 146
SWIDTH 258 0
DWIDTH 8 0
BBX 5 10 2 0
BITMAP
50
50
00
E0
20
20
20
20
20
F8
ENDCHAR
STARTCHAR c147
ENCODING -1 147
SWIDTH 258 0
DWIDTH 8 0
BBX 5 10 2 -3
BITMAP
78
88
88
80
80
88
70
20
20
40
ENDCHAR
STARTCHAR c148
ENCODING -1 148
SWIDTH 258 0
DWIDTH 8 0
BBX 6 11 2 0
BITMAP
10
20
40
00
70
88
08
78
88
98
EC
ENDCHAR
STARTCHAR c149
ENCODING -1 149
SWIDTH 258 0
DWIDTH 8 0
BBX 7 10 1 0
BITMAP
34
58
00
D8
64
44
44
44
44
EE
ENDCHAR
STARTCHAR c159
ENCODING -1 159
SWIDTH 258 0
DWIDTH 8 0
BBX 0 0 0 0
BITMAP
ENDCHAR
ENDFONT
